<?xml version="1.0" encoding="utf-8"?>
<!-- Uploaded to: SVG Repo, www.svgrepo.com, Generator: SVG Repo Mixer Tools -->
<svg fill="#000000" width="800px" height="800px" viewBox="0 0 32 32" version="1.1" xmlns="http://www.w3.org/2000/svg">
<title>ubereats</title>
<path d="M12.835 21.225c1.25 0.012 2.258 1.028 2.258 2.28 0 0.010-0 0.019-0 0.029v-0.001c0 0.001 0 0.002 0 0.003 0 1.242-1.007 2.25-2.25 2.25-0.011 0-0.021-0-0.032-0l0.002 0c-1.254-0.006-2.269-1.024-2.269-2.28 0-1.259 1.021-2.28 2.28-2.28 0.004 0 0.008 0 0.012 0h-0.001zM27.29 19.663c-1.981 0-3.374 0.804-3.374 2.356 0 1.076 0.766 1.776 2.419 2.118l1.809 0.411c0.712 0.137 0.903 0.323 0.903 0.613 0 0.462-0.547 0.753-1.409 0.753-1.095 0-1.721-0.238-1.965-1.059h-1.916c0.274 1.538 1.445 2.562 3.809 2.562h0.003c2.189 0 3.427-1.023 3.427-2.441 0-1.007-0.731-1.76-2.26-2.083l-1.617-0.326c-0.939-0.17-1.235-0.342-1.235-0.682 0-0.446 0.452-0.719 1.287-0.719 0.903 0 1.565 0.241 1.757 1.059h1.896c-0.107-1.535-1.237-2.561-3.533-2.561zM12.58 19.653c-0.007-0-0.016-0-0.024-0-2.142 0-3.878 1.736-3.878 3.878s1.736 3.878 3.878 3.878c0.039 0 0.078-0.001 0.117-0.002l-0.006 0c0.011 0 0.025 0 0.038 0 0.894 0 1.715-0.314 2.358-0.837l-0.007 0.005v0.665h1.896v-7.389h-1.886v0.657c-0.643-0.532-1.476-0.854-2.384-0.854-0.006 0-0.011 0-0.017 0h0.001zM19.2 17.745v2.107h-1.439v1.672h1.443v3.928c0 0 0 0.001 0 0.001 0 0.987 0.8 1.787 1.787 1.787 0.075 0 0.149-0.005 0.222-0.014l-0.009 0.001h2.053l-0.008-1.672h-1.426c-0.435 0-0.714-0.189-0.714-0.58v-3.459h2.14v-1.664h-2.132v-2.107zM1.004 17.233v9.962h7.151v-1.708h-5.219v-2.463h5.079v-1.642h-5.079v-2.444h5.219v-1.705zM14.187 8.423c0.008-0 0.018-0 0.028-0 1.395 0 2.526 1.131 2.526 2.526s-1.131 2.526-2.526 2.526c-1.395 0-2.526-1.131-2.526-2.526 0-0.692 0.279-1.32 0.73-1.776l-0 0c0.452-0.457 1.076-0.742 1.767-0.75h0.002zM22.508 8.416c0.009-0 0.020-0 0.031-0 1.114 0 2.044 0.791 2.258 1.842l0.003 0.015h-4.521c0.214-1.056 1.128-1.842 2.228-1.857l0.002-0zM30.26 7.237c-0.005-0-0.011-0-0.017-0-0.718 0-1.346 0.379-1.697 0.948l-0.005 0.009v-0.898h-1.453v7.277h1.467v-4.138c-0.006-0.053-0.009-0.115-0.009-0.177 0-0.923 0.745-1.672 1.667-1.678h0.619v-1.341c-0.197 0.002-0.398-0.001-0.571-0.002zM22.558 7.153c-0.001 0-0.003 0-0.004 0-2.093 0-3.789 1.696-3.789 3.789s1.696 3.789 3.789 3.789c0.053 0 0.106-0.001 0.159-0.003l-0.008 0c0.023 0.001 0.051 0.001 0.079 0.001 1.27 0 2.398-0.606 3.111-1.545l0.007-0.010-1.062-0.772c-0.47 0.653-1.229 1.073-2.085 1.073-0.018 0-0.035-0-0.052-0.001l0.003 0c-0.009 0-0.021 0-0.032 0-1.221 0-2.235-0.889-2.429-2.054l-0.002-0.014h6.021v-0.473c0.002-0.042 0.003-0.092 0.003-0.142 0-2.010-1.629-3.639-3.639-3.639-0.024 0-0.048 0-0.071 0.001l0.004-0zM10.205 4.584v9.989h1.453v-0.914c0.676 0.676 1.611 1.095 2.643 1.095 0.001 0 0.002 0 0.003 0h-0c0.031 0.001 0.069 0.001 0.106 0.001 2.101 0 3.804-1.703 3.804-3.804s-1.703-3.804-3.804-3.804c-0.037 0-0.074 0.001-0.111 0.002l0.005-0c-0.001 0-0.002 0-0.002 0-1.028 0-1.959 0.418-2.63 1.095l-0 0v-3.659zM1.004 4.584v6.245c-0.003 0.055-0.004 0.119-0.004 0.183 0 2.060 1.67 3.73 3.73 3.73 0.045 0 0.090-0.001 0.134-0.002l-0.006 0c0.017 0 0.037 0 0.057 0 1.028 0 1.958-0.419 2.63-1.095l0-0v0.928h1.514v-9.989h-1.527v6.166c0.003 0.046 0.005 0.099 0.005 0.153 0 1.38-1.119 2.499-2.499 2.499s-2.499-1.119-2.499-2.499c0-0.054 0.002-0.107 0.005-0.16l-0 0.007v-6.166z"></path>
</svg>